<?xml version="1.0" standalone="no"?>
<!DOCTYPE svg PUBLIC "-//W3C//DTD SVG 20010904//EN"
 "http://www.w3.org/TR/2001/REC-SVG-20010904/DTD/svg10.dtd">
<svg version="1.0" xmlns="http://www.w3.org/2000/svg"
 width="800.000000pt" height="500.000000pt" viewBox="0 0 800.000000 500.000000"
 preserveAspectRatio="xMidYMid meet">

<g transform="translate(0.000000,500.000000) scale(0.100000,-0.100000)"
fill="#000000" stroke="none">
<path d="M3431 3899 c-13 -11 -31 -17 -39 -14 -12 5 -13 3 -2 -10 12 -14 16
-13 41 11 20 19 33 24 49 19 15 -5 20 -4 16 4 -11 17 -38 13 -65 -10z"/>
<path d="M3308 3903 c7 -3 16 -2 19 1 4 3 -2 6 -13 5 -11 0 -14 -3 -6 -6z"/>
<path d="M3355 3900 c3 -5 8 -10 11 -10 2 0 4 5 4 10 0 6 -5 10 -11 10 -5 0
-7 -4 -4 -10z"/>
<path d="M4165 3839 c-6 -9 -3 -11 8 -6 9 3 30 2 48 -3 21 -6 29 -6 23 0 -17
17 -71 23 -79 9z"/>
<path d="M4275 3826 c-15 -13 -23 -26 -19 -28 5 -3 19 8 32 23 29 35 24 37
-13 5z"/>
<path d="M4320 3846 c0 -2 9 -6 20 -9 11 -3 18 -1 14 4 -5 9 -34 13 -34 5z"/>
<path d="M3695 3741 c51 -9 78 -24 104 -57 12 -15 21 -22 21 -17 0 12 -48 57
-77 72 -12 6 -37 10 -55 10 -32 -1 -32 -2 7 -8z"/>
<path d="M3620 3727 c-8 -7 -22 -21 -30 -32 -11 -15 -7 -14 15 5 17 14 34 28
40 32 5 5 5 8 0 8 -6 0 -17 -6 -25 -13z"/>
<path d="M3756 3678 c10 -14 21 -24 23 -22 3 3 -6 15 -18 27 l-24 22 19 -27z"/>
<path d="M3150 3650 c-18 -12 -2 -12 25 0 13 6 15 9 5 9 -8 0 -22 -4 -30 -9z"/>
<path d="M3201 3656 c2 -2 18 -6 34 -10 22 -5 26 -4 15 4 -14 9 -59 15 -49 6z"/>
<path d="M3285 3620 c10 -11 20 -18 23 -15 7 6 -18 35 -31 35 -5 0 -2 -9 8
-20z"/>
<path d="M3561 3623 c-1 -32 27 -87 53 -103 20 -12 20 -11 -2 13 -13 14 -30
44 -37 68 -8 27 -14 35 -14 22z"/>
<path d="M3816 3615 c-9 -26 -7 -32 5 -12 6 10 9 21 6 23 -2 3 -7 -2 -11 -11z"/>
<path d="M3090 3606 c-6 -8 -24 -17 -38 -19 -20 -3 -17 -4 12 -6 22 0 36 2 33
6 -4 3 -2 12 4 20 6 7 9 13 6 13 -2 0 -10 -6 -17 -14z"/>
<path d="M3325 3570 c7 -25 42 -60 60 -59 6 0 2 4 -8 10 -10 6 -27 25 -38 42
-18 28 -20 29 -14 7z"/>
<path d="M2953 3556 c-58 -29 -65 -39 -15 -22 25 9 44 11 47 5 4 -5 14 -9 23
-9 13 1 11 4 -7 14 -23 13 -23 14 -5 24 33 19 1 10 -43 -12z"/>
<path d="M3115 3570 c3 -5 8 -10 11 -10 2 0 4 5 4 10 0 6 -5 10 -11 10 -5 0
-7 -4 -4 -10z"/>
<path d="M3773 3534 c-17 -19 -28 -34 -25 -34 11 0 62 50 62 60 0 13 0 13 -37
-26z"/>
<path d="M4750 3560 c0 -5 5 -10 11 -10 5 0 7 5 4 10 -3 6 -8 10 -11 10 -2 0
-4 -4 -4 -10z"/>
<path d="M4683 3548 c-13 -6 -23 -15 -23 -20 0 -7 31 8 59 29 10 7 -16 1 -36
-9z"/>
<path d="M4781 3556 c2 -2 15 -9 29 -16 23 -12 24 -12 11 3 -7 10 -20 17 -29
17 -8 0 -13 -2 -11 -4z"/>
<path d="M3285 3540 c-3 -6 1 -7 9 -4 18 7 21 14 7 14 -6 0 -13 -4 -16 -10z"/>
<path d="M3250 3530 c-9 -6 -10 -10 -3 -10 6 0 15 5 18 10 8 12 4 12 -15 0z"/>
<path d="M2876 3505 c-9 -26 -7 -32 5 -12 6 10 9 21 6 23 -2 3 -7 -2 -11 -11z"/>
<path d="M4641 3513 c-1 -8 -15 -13 -33 -14 -30 -1 -28 -2 17 -14 27 -8 51
-12 54 -10 2 3 -1 5 -8 5 -6 0 -16 10 -21 23 -5 12 -9 16 -9 10z"/>
<path d="M3678 3493 c7 -3 16 -2 19 1 4 3 -2 6 -13 5 -11 0 -14 -3 -6 -6z"/>
<path d="M4870 3484 c8 -19 6 -22 -18 -27 -15 -3 -36 -13 -47 -21 -18 -15 -17
-15 15 -2 42 16 94 5 113 -24 6 -11 16 -20 22 -20 5 0 -8 17 -30 38 -22 21
-46 47 -53 58 -12 18 -12 18 -2 -2z"/>
<path d="M4545 3480 c-3 -6 1 -7 9 -4 18 7 21 14 7 14 -6 0 -13 -4 -16 -10z"/>
<path d="M4485 3447 c-51 -24 -72 -43 -79 -70 -5 -21 -4 -20 14 3 11 14 20 28
20 31 0 14 61 31 94 27 19 -2 32 0 30 4 -3 4 -11 8 -19 8 -7 0 -15 4 -17 8 -1
4 -21 -1 -43 -11z"/>
<path d="M3920 3452 c0 -10 -104 -118 -170 -175 -48 -42 -49 -44 -10 -16 25
18 75 64 113 102 38 38 67 61 67 53 0 -9 5 -16 10 -16 6 0 10 8 10 17 0 15 2
14 16 -3 11 -13 10 -10 -2 14 -17 30 -34 42 -34 24z"/>
<path d="M2825 3439 c-16 -4 20 -7 80 -7 116 0 123 5 15 10 -36 2 -78 0 -95
-3z"/>
<path d="M3420 3440 c0 -5 5 -10 11 -10 5 0 7 5 4 10 -3 6 -8 10 -11 10 -2 0
-4 -4 -4 -10z"/>
<path d="M3043 3433 c9 -2 23 -2 30 0 6 3 -1 5 -18 5 -16 0 -22 -2 -12 -5z"/>
<path d="M3238 3433 c7 -3 16 -2 19 1 4 3 -2 6 -13 5 -11 0 -14 -3 -6 -6z"/>
<path d="M3303 3433 c20 -2 54 -2 75 0 20 2 3 4 -38 4 -41 0 -58 -2 -37 -4z"/>
<path d="M3990 3361 c5 -11 15 -23 21 -27 6 -3 3 5 -6 20 -20 30 -30 35 -15 7z"/>
<path d="M3921 3344 c0 -11 3 -14 6 -6 3 7 2 16 -1 19 -3 4 -6 -2 -5 -13z"/>
<path d="M4400 3340 c-13 -8 -12 -10 3 -10 9 0 17 5 17 10 0 12 -1 12 -20 0z"/>
<path d="M4940 3340 l-25 -8 27 -1 c15 -1 30 4 33 9 7 11 0 11 -35 0z"/>
<path d="M4358 3333 c7 -3 16 -2 19 1 4 3 -2 6 -13 5 -11 0 -14 -3 -6 -6z"/>
<path d="M4578 3333 c7 -3 16 -2 19 1 4 3 -2 6 -13 5 -11 0 -14 -3 -6 -6z"/>
<path d="M3916 3308 c-3 -7 -7 -31 -10 -53 -3 -22 -8 -53 -11 -70 l-5 -30 11
30 c11 32 28 135 22 135 -2 0 -5 -6 -7 -12z"/>
<path d="M4069 3252 c5 -10 18 -25 27 -33 11 -9 9 -2 -6 19 -26 35 -36 42 -21
14z"/>
<path d="M3420 3220 c-8 -5 -10 -10 -5 -10 6 0 17 5 25 10 8 5 11 10 5 10 -5
0 -17 -5 -25 -10z"/>
<path d="M3670 3219 c0 -5 5 -7 10 -4 6 3 10 8 10 11 0 2 -4 4 -10 4 -5 0 -10
-5 -10 -11z"/>
<path d="M3560 3167 c30 -31 56 -57 59 -57 3 0 -8 13 -23 29 l-27 28 38 16
c21 9 31 16 23 16 -8 0 -26 -6 -40 -14 -23 -12 -27 -11 -55 13 -16 15 -5 1 25
-31z"/>
<path d="M3373 3200 c-13 -5 -23 -11 -23 -14 0 -7 40 6 46 15 6 10 6 10 -23
-1z"/>
<path d="M3170 3139 c-30 -22 -59 -45 -65 -51 -20 -21 41 16 79 48 21 18 48
35 60 37 19 4 19 4 1 5 -11 1 -45 -17 -75 -39z"/>
<path d="M3313 3170 c-13 -5 -23 -12 -23 -15 0 -9 16 -5 36 10 22 16 19 18
-13 5z"/>
<path d="M4158 3131 c26 -38 28 -38 56 -24 31 16 66 11 91 -13 9 -9 18 -14 22
-11 7 7 -57 47 -75 47 -7 0 -23 -5 -34 -11 -18 -10 -25 -7 -50 20 -39 42 -43
39 -10 -8z"/>
<path d="M3879 3136 c-2 -11 -19 -25 -39 -33 -32 -12 -32 -13 -5 -7 36 6 59
27 53 46 -4 9 -6 7 -9 -6z"/>
<path d="M3970 3068 c-19 -17 -24 -23 -10 -14 44 29 49 29 85 -3 30 -26 44
-31 88 -32 74 -1 94 -6 130 -32 47 -35 111 -72 105 -61 -4 5 -40 31 -81 57
-70 44 -79 47 -141 47 -61 0 -69 3 -104 34 l-37 34 -35 -30z"/>
<path d="M3725 3075 c-25 -12 -26 -14 -5 -9 28 7 60 23 45 23 -5 0 -23 -6 -40
-14z"/>
<path d="M4148 3083 c7 -3 16 -2 19 1 4 3 -2 6 -13 5 -11 0 -14 -3 -6 -6z"/>
<path d="M3058 3064 c-16 -8 -28 -17 -28 -19 0 -10 16 -4 40 15 30 23 25 25
-12 4z"/>
<path d="M3284 3058 c-4 -6 -3 -8 3 -5 6 4 16 0 24 -9 7 -8 22 -20 33 -26 13
-6 8 2 -12 21 -38 35 -38 35 -48 19z"/>
<path d="M3665 3060 c-3 -5 1 -10 10 -10 9 0 13 5 10 10 -3 6 -8 10 -10 10 -2
0 -7 -4 -10 -10z"/>
<path d="M3615 3046 c-18 -13 -18 -14 8 -9 15 3 27 9 27 14 0 13 -13 11 -35
-5z"/>
<path d="M4371 3057 c2 -1 13 -9 24 -17 19 -14 19 -14 6 3 -7 9 -18 17 -24 17
-6 0 -8 -1 -6 -3z"/>
<path d="M4523 3040 c-34 -14 -28 -21 7 -9 17 6 30 13 30 15 0 6 -12 4 -37 -6z"/>
<path d="M2995 3030 c-3 -6 1 -7 9 -4 18 7 21 14 7 14 -6 0 -13 -4 -16 -10z"/>
<path d="M3210 3020 c-19 -11 -28 -19 -20 -19 8 0 26 8 40 19 31 25 25 25 -20
0z"/>
<path d="M3550 3030 c-9 -6 -10 -10 -3 -10 6 0 15 5 18 10 8 12 4 12 -15 0z"/>
<path d="M3899 3019 c-23 -19 -23 -20 -2 -10 12 6 25 16 28 21 10 16 -1 12
-26 -11z"/>
<path d="M4570 3036 c0 -2 12 -12 28 -21 l27 -18 -19 21 c-17 20 -36 29 -36
18z"/>
<path d="M4429 3018 c16 -21 37 -23 47 -6 5 8 2 9 -11 5 -9 -4 -25 -2 -34 5
-14 12 -14 11 -2 -4z"/>
<path d="M2950 3010 c-13 -8 -12 -10 3 -10 9 0 17 5 17 10 0 12 -1 12 -20 0z"/>
<path d="M3485 3010 c-3 -5 -2 -10 4 -10 5 0 13 5 16 10 3 6 2 10 -4 10 -5 0
-13 -4 -16 -10z"/>
<path d="M2908 2993 c7 -3 16 -2 19 1 4 3 -2 6 -13 5 -11 0 -14 -3 -6 -6z"/>
<path d="M3135 2985 c-16 -8 -23 -14 -14 -15 8 0 24 7 35 15 23 18 18 18 -21
0z"/>
<path d="M3360 2996 c0 -8 122 -88 126 -83 3 3 -5 11 -18 18 -12 6 -39 25 -59
40 -34 27 -49 34 -49 25z"/>
<path d="M3845 2990 c-3 -6 1 -7 9 -4 18 7 21 14 7 14 -6 0 -13 -4 -16 -10z"/>
<path d="M4662 2991 c20 -4 45 -14 55 -22 16 -12 16 -11 -1 9 -14 16 -29 22
-55 21 l-36 -1 37 -7z"/>
<path d="M3760 2960 c-21 -7 -21 -8 -5 -9 11 0 27 4 35 9 18 11 5 11 -30 0z"/>
<path d="M3040 2950 c0 -5 7 -7 15 -4 8 4 15 8 15 10 0 2 -7 4 -15 4 -8 0 -15
-4 -15 -10z"/>
<path d="M3648 2933 c7 -3 16 -2 19 1 4 3 -2 6 -13 5 -11 0 -14 -3 -6 -6z"/>
<path d="M4775 2930 c3 -5 8 -10 11 -10 2 0 4 5 4 10 0 6 -5 10 -11 10 -5 0
-7 -4 -4 -10z"/>
<path d="M4200 2926 c0 -2 9 -6 20 -9 11 -3 20 -1 20 4 0 5 -9 9 -20 9 -11 0
-20 -2 -20 -4z"/>
<path d="M2845 2910 c-16 -7 -17 -9 -3 -9 9 -1 20 4 23 9 7 11 7 11 -20 0z"/>
<path d="M4140 2910 c-12 -8 -11 -10 8 -10 12 0 22 5 22 10 0 13 -11 13 -30 0z"/>
<path d="M4404 2905 c11 -8 16 -15 10 -15 -5 0 -3 -4 5 -9 7 -5 22 -6 32 -4
15 4 12 9 -18 24 -44 23 -55 24 -29 4z"/>
<path d="M3515 2890 c3 -5 8 -10 11 -10 2 0 4 5 4 10 0 6 -5 10 -11 10 -5 0
-7 -4 -4 -10z"/>
<path d="M4851 2897 c2 -1 13 -9 24 -17 19 -14 19 -14 6 3 -7 9 -18 17 -24 17
-6 0 -8 -1 -6 -3z"/>
<path d="M4045 2880 c-3 -6 1 -7 9 -4 18 7 21 14 7 14 -6 0 -13 -4 -16 -10z"/>
<path d="M4240 2880 c0 -5 5 -10 11 -10 5 0 7 5 4 10 -3 6 -8 10 -11 10 -2 0
-4 -4 -4 -10z"/>
<path d="M4348 2883 c6 -2 18 -2 25 0 6 3 1 5 -13 5 -14 0 -19 -2 -12 -5z"/>
<path d="M3565 2873 c14 -14 95 -44 95 -35 0 4 -15 12 -32 18 -18 6 -42 15
-53 19 -13 5 -17 5 -10 -2z"/>
<path d="M4298 2873 c6 -2 18 -2 25 0 6 3 1 5 -13 5 -14 0 -19 -2 -12 -5z"/>
<path d="M4144 2854 c-18 -14 -18 -15 4 -4 12 6 22 13 22 15 0 8 -5 6 -26 -11z"/>
<path d="M4185 2859 c-4 -6 -5 -12 -2 -15 2 -3 7 2 10 11 7 17 1 20 -8 4z"/>
<path d="M4900 2865 c0 -7 61 -37 66 -33 2 3 -12 12 -31 21 -19 9 -35 15 -35
12z"/>
<path d="M3855 2825 c-25 -12 -26 -14 -5 -9 28 7 60 23 45 23 -5 0 -23 -6 -40
-14z"/>
<path d="M4985 2820 c3 -5 8 -10 11 -10 2 0 4 5 4 10 0 6 -5 10 -11 10 -5 0
-7 -4 -4 -10z"/>
<path d="M4186 2793 c10 -40 14 -41 14 -5 0 18 -5 32 -10 32 -6 0 -8 -11 -4
-27z"/>
<path d="M3950 2800 c-11 -8 -7 -9 15 -4 37 8 45 14 19 14 -10 0 -26 -5 -34
-10z"/>
<path d="M3705 2785 c-54 -17 -33 -18 30 -1 28 8 41 14 30 14 -11 0 -38 -5
-60 -13z"/>
<path d="M4050 2779 c-13 -9 -13 -10 1 -6 9 3 22 0 29 -6 10 -9 12 -9 8 2 -6
20 -20 23 -38 10z"/>
<path d="M3860 2770 c-8 -5 -10 -10 -5 -10 6 0 17 5 25 10 8 5 11 10 5 10 -5
0 -17 -5 -25 -10z"/>
<path d="M3640 2759 c0 -5 5 -7 10 -4 6 3 10 8 10 11 0 2 -4 4 -10 4 -5 0 -10
-5 -10 -11z"/>
<path d="M3803 2753 c9 -2 23 -2 30 0 6 3 -1 5 -18 5 -16 0 -22 -2 -12 -5z"/>
<path d="M3955 2750 c-8 -13 5 -13 25 0 13 8 13 10 -2 10 -9 0 -20 -4 -23 -10z"/>
<path d="M3566 2741 c-3 -4 6 -6 19 -3 14 2 25 6 25 8 0 8 -39 4 -44 -5z"/>
<path d="M3743 2743 c-13 -2 -23 -8 -23 -12 0 -5 11 -6 25 -3 14 2 25 8 25 13
0 5 -1 8 -2 8 -2 -1 -13 -4 -25 -6z"/>
<path d="M3525 2730 c-3 -5 -2 -10 4 -10 5 0 13 5 16 10 3 6 2 10 -4 10 -5 0
-13 -4 -16 -10z"/>
<path d="M3830 2715 c-41 -13 -67 -24 -57 -24 22 -1 118 29 132 40 11 11 17
12 -75 -16z"/>
<path d="M4083 2703 c1 -24 5 -43 9 -43 10 0 9 26 -2 60 -6 20 -7 17 -7 -17z"/>
<path d="M4196 2722 c-2 -4 -1 -14 5 -22 7 -12 9 -10 9 8 0 23 -5 28 -14 14z"/>
<path d="M3450 2713 c-53 -20 -82 -34 -78 -38 3 -3 18 1 34 10 16 8 37 15 47
15 9 0 17 5 17 10 0 6 -1 10 -2 9 -2 0 -10 -3 -18 -6z"/>
<path d="M3570 2690 c-13 -9 -13 -10 0 -9 8 0 24 4 35 9 l20 9 -20 0 c-11 0
-27 -4 -35 -9z"/>
<path d="M3732 2678 c-14 -14 -16 -28 -3 -28 5 0 11 9 14 20 6 23 5 24 -11 8z"/>
<path d="M3456 2657 c-43 -15 -61 -18 -64 -9 -5 17 -19 15 -19 -3 0 -8 6 -16
14 -19 17 -7 17 -33 1 -39 -7 -3 -4 -6 8 -6 15 -1 20 5 20 22 -1 21 2 22 82
21 93 -2 102 4 21 13 -65 7 -72 11 -31 19 18 4 32 10 32 15 0 5 -1 9 -2 8 -2
0 -30 -10 -62 -22z"/>
<path d="M4201 2658 c0 -14 -5 -28 -11 -30 -5 -1 36 -3 93 -4 69 0 110 -5 127
-15 22 -12 -6 -15 -255 -19 -274 -5 -276 -5 -110 -10 94 -3 224 -3 290 0 l120
5 49 -50 c27 -27 53 -49 58 -48 4 2 7 -1 5 -6 -1 -5 13 -23 30 -40 28 -26 40
-31 83 -31 58 0 65 11 15 26 -19 6 -32 7 -30 4 3 -4 -4 -10 -14 -13 -13 -3
-29 6 -48 26 l-28 31 38 -22 c20 -12 37 -20 37 -18 0 11 -102 76 -110 71 -6
-3 -8 0 -5 7 6 18 -107 98 -153 109 -20 5 -67 9 -104 9 -61 0 -67 2 -71 23 -4
19 -4 19 -6 -5z"/>
<path d="M2820 2638 c-19 -17 -28 -27 -20 -23 8 5 23 15 33 23 15 14 17 13 17
-3 0 -13 3 -15 13 -6 8 6 18 7 23 3 5 -4 0 3 -10 16 -11 12 -20 22 -20 22 -1
-1 -17 -15 -36 -32z"/>
<path d="M5126 2639 c-40 -30 -38 -42 2 -13 20 14 23 14 29 -2 3 -9 1 -25 -6
-36 -9 -15 -8 -19 6 -24 10 -3 36 -15 58 -25 22 -11 32 -14 21 -7 -57 40 -66
51 -66 80 0 26 2 29 15 18 25 -21 27 -5 2 17 l-22 21 -39 -29z"/>
<path d="M3650 2630 c0 -12 421 -12 440 0 10 7 -60 10 -212 9 -126 0 -228 -4
-228 -9z"/>
<path d="M4115 2630 c-8 -13 25 -13 45 0 12 8 9 10 -12 10 -15 0 -30 -4 -33
-10z"/>
<path d="M2907 2619 c7 -7 15 -10 18 -7 3 3 -2 9 -12 12 -14 6 -15 5 -6 -5z"/>
<path d="M2835 2569 c-19 -20 -19 -20 5 -11 14 5 32 7 40 4 11 -4 11 -2 -2 11
-21 21 -21 21 -43 -4z"/>
<path d="M3342 2569 c-19 -30 -11 -32 11 -3 10 13 14 24 10 24 -5 0 -14 -9
-21 -21z"/>
<path d="M3478 2583 c7 -3 16 -2 19 1 4 3 -2 6 -13 5 -11 0 -14 -3 -6 -6z"/>
<path d="M3583 2583 c43 -2 110 -2 150 0 40 1 5 3 -78 3 -82 0 -115 -2 -72 -3z"/>
<path d="M3845 2580 c4 -6 11 -8 16 -5 14 9 11 15 -7 15 -8 0 -12 -5 -9 -10z"/>
<path d="M3851 2544 c0 -11 3 -14 6 -6 3 7 2 16 -1 19 -3 4 -6 -2 -5 -13z"/>
<path d="M5096 2545 c-11 -8 -15 -15 -10 -15 6 0 19 7 30 15 10 8 15 14 9 14
-5 0 -19 -6 -29 -14z"/>
<path d="M2784 2534 c-18 -14 -18 -15 4 -4 12 6 22 13 22 15 0 8 -5 6 -26 -11z"/>
<path d="M2851 2536 c0 -11 -13 -33 -28 -49 -24 -25 -25 -27 -5 -16 12 8 22
17 22 21 0 5 4 8 9 8 9 0 8 -24 -4 -75 -3 -16 1 -21 17 -22 12 -1 25 -8 29
-15 4 -7 11 -10 14 -6 4 4 -5 14 -18 23 -25 16 -26 20 -18 79 0 5 10 1 21 -9
11 -10 20 -15 20 -12 0 10 -40 48 -41 40 -1 -5 -5 6 -9 22 -5 19 -8 23 -9 11z"/>
<path d="M2910 2540 c8 -5 20 -10 25 -10 6 0 3 5 -5 10 -8 5 -19 10 -25 10 -5
0 -3 -5 5 -10z"/>
<path d="M3397 2543 c-11 -10 -8 -43 3 -43 6 0 10 9 10 19 0 11 6 22 13 24 8
4 6 6 -4 6 -9 1 -19 -2 -22 -6z"/>
<path d="M3501 2536 c-18 -21 -10 -128 9 -134 13 -4 13 -3 2 11 -8 9 -12 35
-10 69 l3 53 70 6 70 5 -66 2 c-47 1 -70 -2 -78 -12z"/>
<path d="M3663 2543 c9 -2 23 -2 30 0 6 3 -1 5 -18 5 -16 0 -22 -2 -12 -5z"/>
<path d="M3723 2543 c9 -2 25 -2 35 0 9 3 1 5 -18 5 -19 0 -27 -2 -17 -5z"/>
<path d="M3793 2539 c13 -8 17 -23 17 -64 0 -30 -4 -57 -10 -60 -5 -3 -10 -12
-10 -18 0 -7 7 -3 15 7 9 12 15 41 15 71 0 49 -12 75 -34 75 -6 0 -3 -5 7 -11z"/>
<path d="M4240 2475 c0 -41 4 -75 8 -75 5 0 9 34 10 75 0 41 -4 75 -9 75 -5 0
-9 -34 -9 -75z"/>
<path d="M4352 2543 c60 -3 90 -8 98 -18 7 -8 17 -15 23 -15 5 0 -2 9 -16 20
-21 17 -38 20 -109 18 l-83 -2 87 -3z"/>
<path d="M3299 2484 c-11 -26 -18 -49 -16 -51 2 -2 14 19 25 47 11 27 19 50
16 50 -3 0 -14 -21 -25 -46z"/>
<path d="M4210 2310 l-5 -224 -25 -7 c-17 -5 -8 -7 30 -7 36 0 48 2 35 7 -19
8 -20 20 -25 232 l-5 224 -5 -225z"/>
<path d="M3920 2511 c0 -6 48 -11 122 -13 121 -3 122 -3 129 -28 6 -20 7 -21
8 -5 1 44 -17 51 -141 53 -75 2 -118 -1 -118 -7z"/>
<path d="M5153 2514 c4 -4 -16 -22 -43 -41 -28 -18 -50 -36 -50 -38 0 -6 69
36 76 46 9 15 24 10 25 -8 0 -15 2 -15 9 2 12 29 12 32 -7 39 -10 4 -14 4 -10
0z"/>
<path d="M3853 2475 c0 -22 2 -30 4 -17 2 12 2 30 0 40 -3 9 -5 -1 -4 -23z"/>
<path d="M4490 2484 c8 -8 23 -20 34 -26 16 -8 15 -4 -6 16 -30 28 -48 35 -28
10z"/>
<path d="M3391 2468 c1 -13 5 -34 9 -48 7 -20 8 -16 9 23 1 26 -3 47 -9 47 -5
0 -10 -10 -9 -22z"/>
<path d="M5180 2486 c0 -6 66 -46 75 -46 4 0 -9 11 -29 25 -36 25 -46 29 -46
21z"/>
<path d="M3904 2450 l1 -25 110 -1 110 0 -107 3 c-101 3 -107 5 -111 26 -3 19
-4 18 -3 -3z"/>
<path d="M3455 2450 c3 -5 8 -10 11 -10 2 0 4 5 4 10 0 6 -5 10 -11 10 -5 0
-7 -4 -4 -10z"/>
<path d="M5160 2441 c0 -5 -17 -26 -37 -46 -28 -29 -31 -33 -9 -17 21 16 32
19 41 12 9 -8 15 -6 19 7 4 10 3 19 -3 21 -5 2 -7 10 -4 18 3 8 2 14 -1 14 -3
0 -6 -4 -6 -9z"/>
<path d="M4150 2430 c-13 -8 -12 -10 3 -10 9 0 17 5 17 10 0 12 -1 12 -20 0z"/>
<path d="M3442 2414 c-13 -6 -20 -14 -14 -18 10 -6 50 19 42 27 -3 2 -16 -2
-28 -9z"/>
<path d="M4565 2420 c3 -5 3 -10 -2 -11 -4 0 -55 -2 -113 -5 -145 -7 -141 -16
5 -12 105 3 120 5 123 21 2 9 -2 17 -8 17 -6 0 -8 -4 -5 -10z"/>
<path d="M3755 2400 c-3 -6 1 -7 9 -4 18 7 21 14 7 14 -6 0 -13 -4 -16 -10z"/>
<path d="M4750 2400 c8 -5 20 -10 25 -10 6 0 3 5 -5 10 -8 5 -19 10 -25 10 -5
0 -3 -5 5 -10z"/>
<path d="M3270 2383 c0 -10 5 -25 10 -33 7 -11 10 -7 10 18 0 17 -4 32 -10 32
-5 0 -10 -8 -10 -17z"/>
<path d="M3851 2384 c0 -11 3 -14 6 -6 3 7 2 16 -1 19 -3 4 -6 -2 -5 -13z"/>
<path d="M5204 2381 c20 -22 26 -25 26 -13 0 4 -10 13 -22 21 -23 14 -23 14
-4 -8z"/>
<path d="M2776 2365 c-11 -8 -15 -15 -9 -15 6 0 16 7 23 15 16 19 11 19 -14 0z"/>
<path d="M4843 2348 c25 -18 48 -40 51 -48 3 -12 4 -11 5 2 1 15 -76 78 -95
78 -5 0 13 -15 39 -32z"/>
<path d="M2936 2355 c10 -8 26 -14 34 -14 9 0 4 6 -10 14 -33 19 -49 19 -24 0z"/>
<path d="M5161 2358 c-1 -9 -11 -24 -23 -33 l-23 -17 22 7 c22 6 22 6 25 -142
l3 -148 5 152 c3 84 2 163 -2 175 -4 15 -6 17 -7 6z"/>
<path d="M3854 2230 c0 -74 1 -105 3 -67 2 37 2 97 0 135 -2 37 -3 6 -3 -68z"/>
<path d="M5050 2350 c-13 -8 -13 -10 2 -10 9 0 20 5 23 10 8 13 -5 13 -25 0z"/>
<path d="M5240 2356 c0 -2 7 -7 16 -10 8 -3 12 -2 9 4 -6 10 -25 14 -25 6z"/>
<path d="M2820 2315 c-19 -19 -31 -35 -27 -35 5 0 20 12 34 26 20 20 28 23 34
12 5 -7 9 -9 9 -5 0 5 14 -3 31 -17 39 -33 89 -60 89 -47 0 5 -10 11 -23 15
-13 3 -44 23 -69 45 l-45 40 -33 -34z"/>
<path d="M5210 2297 c27 -31 78 -62 87 -53 3 3 -7 10 -23 16 -16 6 -42 23 -59
38 l-30 27 25 -28z"/>
<path d="M5065 2270 c-27 -17 -46 -30 -41 -30 11 0 96 49 96 55 0 7 0 7 -55
-25z"/>
<path d="M2756 2265 c-11 -8 -15 -15 -9 -15 6 0 16 7 23 15 16 19 11 19 -14 0z"/>
<path d="M2853 2195 c0 -44 2 -61 4 -37 2 23 2 59 0 80 -2 20 -4 1 -4 -43z"/>
<path d="M3266 2192 c-4 -40 -5 -76 -2 -79 3 -4 6 11 6 33 l0 39 73 0 c64 -1
72 -3 69 -19 -3 -15 2 -13 20 9 15 17 39 30 64 35 32 6 34 8 11 9 -15 0 -40
-5 -55 -13 -18 -9 -48 -12 -87 -9 -79 5 -83 7 -87 40 -2 16 -7 -4 -12 -45z"/>
<path d="M4593 2212 c-7 -4 8 -7 32 -7 23 0 41 3 38 8 -6 9 -54 9 -70 -1z"/>
<path d="M4786 2213 c-106 -4 -108 -4 -91 -23 9 -10 23 -36 31 -57 8 -22 13
-30 14 -18 0 11 -9 35 -20 53 l-20 32 100 0 c60 0 100 4 100 10 0 6 -1 9 -2 8
-2 -1 -52 -4 -112 -5z"/>
<path d="M3540 2206 c0 -2 7 -7 16 -10 8 -3 12 -2 9 4 -6 10 -25 14 -25 6z"/>
<path d="M4918 2194 c5 -9 8 -26 5 -38 -3 -20 -3 -20 5 -1 10 22 4 55 -10 55
-5 0 -5 -6 0 -16z"/>
<path d="M4549 2183 c-13 -16 -12 -17 4 -4 16 13 21 21 13 21 -2 0 -10 -8 -17
-17z"/>
<path d="M3580 2181 c0 -5 5 -13 10 -16 6 -3 10 -2 10 4 0 5 -4 13 -10 16 -5
3 -10 2 -10 -4z"/>
<path d="M4521 2118 c0 -15 -9 -32 -18 -37 -17 -10 -17 -10 0 -11 21 0 30 20
24 52 -4 21 -4 21 -6 -4z"/>
<path d="M3395 2119 c-4 -6 -5 -12 -2 -15 2 -3 7 2 10 11 7 17 1 20 -8 4z"/>
<path d="M3606 2114 c-8 -22 -8 -49 1 -40 8 8 16 56 9 56 -2 0 -7 -7 -10 -16z"/>
<path d="M4894 2119 c-3 -6 -20 -17 -38 -25 -17 -7 -25 -13 -18 -14 17 0 72
32 72 42 0 11 -8 10 -16 -3z"/>
<path d="M3384 2078 c-4 -6 -3 -8 3 -5 5 3 19 -7 31 -23 12 -16 18 -31 14 -33
-4 -2 -133 -4 -287 -3 l-280 1 -6 35 -6 35 -2 -32 -1 -33 -64 0 c-36 0 -67 -4
-71 -9 -3 -6 351 -10 905 -10 613 -1 910 2 910 9 0 7 -177 10 -536 9 -493 -1
-537 1 -554 16 -11 10 -22 26 -25 36 -7 21 -20 25 -31 7z"/>
<path d="M3845 2080 c-3 -5 1 -10 9 -10 9 0 16 5 16 10 0 6 -4 10 -9 10 -6 0
-13 -4 -16 -10z"/>
<path d="M4725 2079 c-4 -6 -5 -12 -2 -15 2 -3 7 2 10 11 7 17 1 20 -8 4z"/>
<path d="M3888 2073 c6 -2 18 -2 25 0 6 3 1 5 -13 5 -14 0 -19 -2 -12 -5z"/>
<path d="M4358 2073 c23 -2 61 -2 85 0 23 2 4 4 -43 4 -47 0 -66 -2 -42 -4z"/>
<path d="M4768 2073 c12 -2 30 -2 40 0 9 3 -1 5 -23 4 -22 0 -30 -2 -17 -4z"/>
<path d="M4540 2052 c6 -13 14 -21 18 -18 3 4 -2 14 -12 24 -18 16 -18 16 -6
-6z"/>
<path d="M3574 2038 l-19 -23 23 19 c12 11 22 21 22 23 0 8 -8 2 -26 -19z"/>
<path d="M4697 2039 c-9 -6 -15 -14 -13 -18 6 -8 -87 -6 -102 3 -13 8 -43 -4
-37 -15 8 -12 595 -12 595 1 0 5 -3 9 -7 9 -5 -1 -104 -1 -222 0 -188 1 -212
3 -201 16 14 17 12 18 -13 4z"/>
<path d="M5155 2010 c3 -5 8 -10 11 -10 2 0 4 5 4 10 0 6 -5 10 -11 10 -5 0
-7 -4 -4 -10z"/>
<path d="M5180 2010 c0 -5 15 -10 33 -9 27 0 29 2 12 9 -28 12 -45 12 -45 0z"/>
<path d="M3540 1911 c0 -4 11 -6 25 -3 14 2 25 6 25 8 0 2 -11 4 -25 4 -14 0
-25 -4 -25 -9z"/>
<path d="M3903 1913 c170 -2 444 -2 610 0 166 1 28 2 -308 2 -335 0 -471 -1
-302 -2z"/>
<path d="M4838 1913 c7 -3 16 -2 19 1 4 3 -2 6 -13 5 -11 0 -14 -3 -6 -6z"/>
<path d="M2792 1754 c-33 -17 -82 -74 -64 -74 6 0 22 14 36 31 14 17 26 28 26
24 0 -3 10 0 23 6 50 28 137 -2 137 -48 0 -7 4 -13 8 -13 13 0 5 -86 -12 -118
-26 -50 -43 -58 -74 -35 -15 11 -28 31 -29 44 -1 25 22 70 35 68 21 -3 43 2
38 9 -7 11 -46 8 -54 -4 -4 -5 -14 -9 -22 -9 -20 0 -22 -72 -3 -91 8 -8 11
-14 7 -14 -5 0 -3 -5 4 -12 17 -17 75 -18 90 -1 7 7 10 13 6 13 -4 0 0 8 8 18
35 41 40 127 10 167 -37 50 -113 67 -170 39z"/>
<path d="M4500 1763 c-32 -12 -93 -87 -116 -143 -53 -132 -13 -250 91 -267 25
-4 44 1 70 17 45 28 40 38 -6 12 -42 -23 -92 -13 -129 26 -80 86 15 342 127
342 64 -1 78 -46 51 -163 -8 -36 -17 -51 -35 -60 -21 -9 -27 -8 -34 6 -12 21
-30 22 -22 1 3 -8 17 -20 32 -25 22 -9 29 -7 48 16 13 14 23 35 23 45 0 10 4
21 8 24 4 2 9 27 10 56 2 48 -15 92 -43 112 -11 9 -53 9 -75 1z"/>
<path d="M2712 1599 c5 -65 4 -71 -17 -85 -13 -8 -32 -16 -43 -17 -12 0 -19
-4 -17 -8 7 -10 57 -2 65 11 4 6 10 11 14 11 3 0 12 2 21 5 8 3 28 -4 44 -15
16 -12 33 -21 39 -21 18 0 100 -51 106 -65 8 -21 -22 -46 -53 -45 -14 1 -33 2
-41 1 -26 -2 11 -21 41 -21 29 0 69 30 69 51 0 20 -30 60 -40 54 -5 -3 -15 1
-23 9 -8 8 -17 12 -21 9 -3 -4 -6 -2 -6 4 0 9 -9 14 -45 22 -22 5 -43 33 -38
52 3 11 8 18 10 15 7 -7 33 20 33 34 0 7 -14 -2 -32 -19 -17 -17 -35 -31 -39
-31 -11 0 -20 66 -13 94 4 18 2 26 -6 26 -9 0 -11 -18 -8 -71z"/>
<path d="M4012 1628 c-15 -15 -16 -31 0 -22 7 4 8 3 4 -5 -8 -12 11 -34 32
-38 18 -4 15 14 -4 21 -8 3 -12 10 -9 16 3 5 2 17 -2 25 -7 12 -12 12 -21 3z"/>
<path d="M3262 1584 c-7 -7 -18 -11 -26 -8 -12 5 -20 -11 -31 -67 -8 -39 -35
-89 -56 -99 -19 -11 -25 -10 -36 6 -7 10 -13 27 -13 38 -1 19 -2 18 -17 -6 -9
-14 -28 -32 -42 -38 -22 -10 -27 -8 -43 12 -10 13 -18 18 -18 12 0 -13 38 -54
50 -54 5 0 18 10 30 22 l20 22 16 -22 c18 -26 37 -28 58 -7 13 14 16 14 24 -1
7 -13 11 -14 17 -4 4 7 2 16 -5 20 -9 5 -8 9 3 13 11 4 23 44 28 91 0 10 57
66 66 66 5 0 18 -7 29 -16 10 -8 13 -13 7 -9 -12 6 -18 -12 -14 -42 1 -7 -4
-23 -10 -35 -19 -36 -29 -90 -16 -85 7 2 13 14 15 28 2 13 6 31 9 39 3 8 7 21
9 29 5 27 37 78 54 89 14 9 22 7 36 -10 11 -12 14 -18 8 -15 -8 4 -12 -2 -12
-16 0 -12 -3 -39 -7 -59 -4 -20 -5 -48 -1 -62 6 -26 38 -42 58 -29 7 4 20 8
28 8 8 0 15 9 15 20 0 11 4 26 8 33 5 7 4 12 -2 12 -14 0 -32 -35 -23 -45 4
-3 3 -6 -3 -4 -5 1 -18 -1 -28 -6 -11 -4 -23 -3 -29 3 -13 13 -18 72 -7 87 4
6 10 24 13 41 5 23 2 34 -14 49 -17 16 -24 17 -38 7 -32 -23 -45 -25 -56 -10
-14 18 -38 19 -54 2z"/>
<path d="M3564 1589 c-3 -6 -15 -8 -26 -6 -13 4 -18 1 -15 -8 3 -7 1 -17 -5
-23 -9 -9 -20 -82 -12 -82 2 0 13 20 24 44 11 25 30 52 42 60 19 14 23 14 34
-2 8 -11 9 -23 3 -34 -5 -9 -8 -21 -8 -25 1 -4 -1 -16 -5 -25 -5 -10 -5 -25
-2 -34 8 -20 14 -15 19 12 5 29 39 94 49 94 5 0 6 5 3 10 -9 14 29 12 43 -2 8
-8 12 -8 12 -1 0 38 -64 31 -80 -9 l-9 -23 0 22 c-1 12 -5 25 -11 28 -19 12
-50 14 -56 4z"/>
<path d="M3841 1565 c-26 -29 -59 -115 -44 -115 2 0 -8 -11 -23 -25 -15 -14
-32 -25 -39 -25 -18 0 -32 22 -28 45 2 11 6 36 9 56 4 22 2 39 -5 43 -7 5 -12
-4 -13 -23 -1 -17 -2 -46 -3 -63 -2 -36 20 -78 40 -78 7 0 24 9 39 21 26 21
68 19 63 -3 -1 -6 10 -15 26 -20 21 -8 36 -5 70 11 51 25 77 68 83 136 l4 50
-19 -67 c-10 -37 -26 -74 -35 -83 -9 -9 -16 -13 -16 -9 0 5 -5 3 -12 -4 -16
-16 -78 -15 -100 2 -18 14 -29 84 -16 101 5 6 17 22 29 38 27 36 69 38 69 3 0
-30 -65 -87 -88 -78 -10 3 -13 1 -8 -6 10 -16 31 -15 46 3 7 8 16 12 21 10 10
-7 38 34 43 62 11 56 -48 67 -93 18z"/>
<path d="M4500 1580 c-6 -11 -7 -20 -2 -20 6 0 12 9 15 20 3 11 3 20 1 20 -2
0 -8 -9 -14 -20z"/>
<path d="M4694 1572 c-43 -44 -55 -60 -45 -66 4 -3 19 11 32 31 25 38 66 54
81 31 13 -21 9 -75 -9 -112 -32 -68 -111 -63 -101 6 3 15 1 28 -4 28 -21 0
-12 -72 12 -92 17 -14 26 -15 48 -6 15 7 32 18 39 25 7 10 13 11 18 4 3 -6 11
-11 16 -11 6 0 7 5 3 12 -10 15 -12 58 -3 58 6 0 22 58 23 89 1 8 -8 15 -19
17 -11 1 -29 5 -41 9 -15 5 -28 -2 -50 -23z"/>
<path d="M4940 1590 c0 -3 -9 -11 -20 -17 -17 -11 -18 -10 -13 5 4 11 3 14 -4
7 -5 -5 -15 -35 -22 -65 -16 -78 -44 -120 -78 -120 -21 0 -24 -3 -15 -12 9 -9
18 -9 37 0 19 9 25 9 25 0 0 -8 3 -8 9 -3 12 14 45 117 43 139 0 10 2 16 5 13
3 -3 15 6 27 20 28 32 61 26 51 -9 -5 -18 -4 -20 4 -8 13 18 14 6 2 -18 -8
-15 -14 -35 -36 -109 -3 -13 -2 -23 3 -23 5 0 14 22 20 49 24 105 102 188 102
108 0 -17 -4 -48 -10 -67 -7 -24 -6 -42 2 -62 16 -34 23 -37 73 -29 22 4 56 2
76 -3 26 -7 45 -6 67 3 17 7 33 11 36 10 7 -6 56 63 56 78 0 7 -5 13 -11 13
-6 0 -9 -7 -5 -15 3 -8 1 -15 -4 -15 -5 0 -12 -9 -15 -20 -4 -11 -10 -18 -15
-15 -5 3 -11 1 -15 -5 -10 -15 -35 -12 -35 5 0 8 5 15 11 15 5 0 7 5 3 11 -4
7 -15 1 -29 -17 -13 -16 -21 -32 -19 -35 2 -3 -8 -4 -21 -1 -26 5 -31 20 -25
92 3 46 38 90 69 87 28 -2 33 -20 21 -71 -5 -24 -4 -36 5 -39 8 -4 12 11 14
47 2 62 -21 93 -61 80 -13 -4 -31 -7 -40 -5 -11 1 -18 -4 -18 -14 0 -10 5 -13
13 -9 6 4 4 -2 -7 -14 -10 -12 -16 -28 -13 -37 4 -8 3 -15 -2 -15 -5 0 -11
-14 -15 -30 -3 -17 -18 -42 -32 -57 -26 -26 -27 -26 -41 -7 -8 11 -11 29 -7
46 11 51 12 113 3 131 -13 22 -31 22 -59 -3 -23 -20 -23 -20 -37 -1 -12 17
-53 26 -53 11z"/>
<path d="M3006 1573 c-4 -13 -8 -36 -8 -53 -1 -16 -5 -30 -10 -30 -4 0 -8 -7
-8 -15 0 -8 4 -15 9 -15 12 0 34 82 29 111 l-4 24 -8 -22z"/>
<path d="M3115 1578 c-13 -36 -22 -98 -15 -98 10 0 19 26 25 74 5 35 -1 49
-10 24z"/>
<path d="M4076 1519 c2 -62 10 -73 19 -26 8 41 4 69 -10 74 -6 2 -10 -17 -9
-48z"/>
<path d="M4172 1470 c-6 -17 -20 -42 -30 -55 -17 -22 -21 -23 -39 -10 -11 8
-23 12 -27 8 -7 -7 24 -32 41 -33 29 0 93 94 75 112 -6 6 -13 -2 -20 -22z"/>
<path d="M2759 1470 c-1 -8 -1 -21 0 -27 1 -7 -3 -13 -10 -13 -6 0 -8 -7 -5
-16 3 -9 -5 -25 -22 -41 -23 -22 -24 -25 -7 -22 11 2 27 18 35 35 l16 31 18
-24 c9 -13 22 -21 27 -17 6 4 6 11 -2 20 -6 7 -15 11 -20 8 -5 -3 -6 2 -3 10
3 9 1 16 -6 16 -6 0 -8 4 -5 10 3 5 1 18 -4 27 -8 15 -11 15 -12 3z"/>
<path d="M3577 1415 c-4 -25 4 -40 17 -28 9 9 7 41 -3 47 -5 3 -11 -6 -14 -19z"/>
<path d="M4575 1420 c-3 -5 -1 -10 4 -10 6 0 11 5 11 10 0 6 -2 10 -4 10 -3 0
-8 -4 -11 -10z"/>
<path d="M5146 1364 c-3 -9 -6 -25 -6 -37 1 -20 1 -21 11 -4 6 10 8 21 5 24
-3 4 -1 12 5 20 7 8 8 13 1 13 -5 0 -13 -7 -16 -16z"/>
<path d="M3620 1165 c-7 -8 -16 -12 -21 -9 -5 3 -9 2 -10 -3 0 -4 -2 -15 -4
-24 -5 -28 22 -50 64 -54 23 -2 44 1 47 6 3 6 -12 9 -36 7 -41 -2 -59 10 -60
39 0 22 48 46 76 39 17 -5 23 -3 19 4 -9 15 -61 12 -75 -5z"/>
<path d="M3913 1173 c-7 -2 -13 -11 -13 -19 0 -8 -5 -14 -12 -14 -6 0 -8 -3
-5 -6 3 -4 0 -16 -8 -28 -21 -29 -18 -42 4 -22 11 10 21 28 23 40 4 27 33 28
33 1 0 -11 -6 -19 -12 -17 -7 1 -13 -3 -13 -9 0 -6 8 -8 19 -4 13 4 23 0 30
-12 5 -10 12 -15 16 -11 5 5 -43 110 -49 107 0 0 -7 -3 -13 -6z"/>
<path d="M4120 1170 c0 -6 9 -10 20 -10 20 0 24 -10 20 -64 -1 -20 2 -26 10
-21 8 5 10 20 7 40 -6 35 7 57 29 48 8 -3 14 -1 14 4 0 5 -22 10 -50 10 -27 1
-50 -2 -50 -7z"/>
<path d="M4580 1170 c-8 -5 -17 -7 -22 -4 -9 6 -29 -31 -26 -48 3 -14 23 -38
32 -38 4 0 1 9 -6 20 -18 28 0 54 39 58 33 3 59 -19 50 -43 -4 -8 -21 -21 -39
-29 -22 -9 -27 -15 -15 -15 19 -1 77 35 77 47 -1 14 -36 50 -55 56 -11 3 -27
1 -35 -4z"/>
<path d="M3100 1162 c0 -4 9 -27 20 -49 15 -33 24 -40 40 -36 11 3 20 9 20 14
0 12 -14 11 -27 -2 -9 -9 -14 -1 -23 29 -9 37 -30 67 -30 44z"/>
<path d="M3186 1148 c-20 -28 -21 -44 -1 -28 8 7 13 16 10 20 -3 5 1 10 7 13
7 2 10 7 7 11 -4 4 -14 -3 -23 -16z"/>
<path d="M3369 1163 c-1 -5 -1 -11 0 -15 0 -5 -3 -8 -7 -8 -5 0 -14 -11 -20
-25 -14 -31 -16 -57 -3 -36 12 18 80 19 92 1 17 -24 0 41 -17 68 -14 21 -43
30 -45 15z m36 -23 c-3 -5 -1 -10 5 -10 6 0 8 -4 5 -10 -3 -5 -17 -10 -31 -10
-22 0 -23 3 -14 20 6 11 18 20 26 20 8 0 12 -4 9 -10z"/>
<path d="M4367 1163 c-10 -10 -8 -81 2 -87 5 -3 11 17 13 44 3 48 -1 58 -15
43z"/>
<path d="M4812 1119 c1 -36 4 -46 11 -34 5 9 6 23 3 30 -11 29 15 24 52 -10
43 -38 50 -34 48 23 -1 33 -20 46 -22 14 -3 -46 -5 -46 -40 -9 -19 20 -39 37
-44 37 -5 0 -8 -23 -8 -51z"/>
</g>
</svg>
